<?xml version="1.0" encoding="UTF-8"?>
<svg xmlns="http://www.w3.org/2000/svg" xmlns:xlink="http://www.w3.org/1999/xlink" viewBox="0 0 75 75" width="75px" height="75px">
<g id="surface29489567">
<path style=" stroke:none;fill-rule:nonzero;fill:rgb(14.901961%,19.607843%,21.960784%);fill-opacity:1;" d="M 63.0625 20.785156 C 65.660156 23.367188 66 27.464844 66 37.5 C 66 47.535156 65.660156 51.632812 63.0625 54.214844 C 60.464844 56.796875 57.761719 57 37.5 57 C 17.238281 57 14.535156 56.796875 11.9375 54.214844 C 9.339844 51.636719 9 47.535156 9 37.5 C 9 27.464844 9.339844 23.367188 11.9375 20.785156 C 14.535156 18.203125 17.238281 18 37.5 18 C 57.761719 18 60.464844 18.203125 63.0625 20.785156 Z M 32.640625 46.398438 L 47.214844 37.953125 L 32.640625 29.640625 Z M 32.640625 46.398438 "/>
</g>
</svg>
