<?xml version="1.0" encoding="UTF-8"?>
<svg xmlns="http://www.w3.org/2000/svg" xmlns:xlink="http://www.w3.org/1999/xlink" viewBox="0 0 35 35" width="35px" height="35px">
<g id="surface345613771">
<path style=" stroke:none;fill-rule:nonzero;fill:rgb(60.784316%,34.901962%,71.372551%);fill-opacity:1;" d="M 33.878906 10.253906 L 31.5 6.152344 C 31.363281 5.90625 31.089844 5.742188 30.789062 5.742188 L 26.058594 5.742188 C 25.757812 5.742188 25.484375 5.90625 25.347656 6.152344 L 22.96875 10.253906 C 22.832031 10.5 22.832031 10.828125 22.96875 11.074219 L 25.347656 15.175781 C 25.484375 15.421875 25.757812 15.585938 26.058594 15.585938 L 30.789062 15.585938 C 31.089844 15.585938 31.363281 15.421875 31.5 15.175781 L 33.878906 11.074219 C 34.042969 10.828125 34.042969 10.5 33.878906 10.253906 Z M 28.4375 13.125 C 27.070312 13.125 25.976562 12.03125 25.976562 10.664062 C 25.976562 9.296875 27.070312 8.203125 28.4375 8.203125 C 29.804688 8.203125 30.898438 9.296875 30.898438 10.664062 C 30.898438 12.03125 29.804688 13.125 28.4375 13.125 Z M 3.71875 17.5 C 3.582031 17.5 3.472656 17.472656 3.335938 17.417969 C 2.925781 17.199219 2.761719 16.707031 2.980469 16.324219 L 6.699219 9.050781 C 7.300781 7.847656 8.53125 7.109375 9.871094 7.109375 L 19.386719 7.109375 C 19.851562 7.109375 20.207031 7.464844 20.207031 7.929688 C 20.207031 8.394531 19.851562 8.75 19.386719 8.75 L 9.871094 8.75 C 9.160156 8.75 8.503906 9.160156 8.175781 9.789062 L 4.457031 17.0625 C 4.320312 17.335938 4.019531 17.5 3.71875 17.5 Z M 30.351562 31.992188 L 4.648438 31.992188 C 2.679688 31.992188 1.09375 30.40625 1.09375 28.4375 L 1.09375 20.234375 C 1.09375 19.769531 1.449219 19.414062 1.914062 19.414062 L 9.570312 19.414062 C 9.84375 19.414062 10.089844 19.550781 10.253906 19.769531 C 11.8125 22.121094 14.410156 23.515625 17.226562 23.515625 C 20.042969 23.515625 22.640625 22.121094 24.199219 19.796875 C 24.335938 19.550781 24.609375 19.414062 24.882812 19.414062 L 33.085938 19.414062 C 33.550781 19.414062 33.90625 19.769531 33.90625 20.234375 L 33.90625 28.4375 C 33.90625 30.40625 32.320312 31.992188 30.351562 31.992188 Z M 30.351562 31.992188 "/>
</g>
</svg>
