<?xml version="1.0" encoding="UTF-8"?>
<svg xmlns="http://www.w3.org/2000/svg" xmlns:xlink="http://www.w3.org/1999/xlink" viewBox="0 0 25 25" width="25px" height="25px">
<g id="surface29450850">
<path style=" stroke:none;fill-rule:nonzero;fill:rgb(100%,100%,100%);fill-opacity:1;" d="M 20.925781 4.074219 C 20.996094 4.144531 21.019531 4.25 20.984375 4.339844 L 14.414062 21.339844 C 14.378906 21.433594 14.28125 21.5 14.183594 21.5 C 14.082031 21.5 13.988281 21.441406 13.949219 21.34375 L 11.675781 15.945312 C 11.535156 15.613281 11.585938 15.234375 11.804688 14.949219 L 16.441406 8.898438 C 16.613281 8.675781 16.324219 8.386719 16.101562 8.558594 L 10.050781 13.195312 C 9.765625 13.414062 9.386719 13.464844 9.054688 13.324219 L 3.65625 11.050781 C 3.558594 11.011719 3.5 10.914062 3.5 10.816406 C 3.5 10.710938 3.566406 10.621094 3.660156 10.585938 L 20.660156 4.015625 C 20.75 3.980469 20.855469 4.003906 20.925781 4.074219 Z M 20.925781 4.074219 "/>
</g>
</svg>
