<?xml version="1.0" encoding="UTF-8"?>
<svg xmlns="http://www.w3.org/2000/svg" xmlns:xlink="http://www.w3.org/1999/xlink" viewBox="0 0 75 75" width="75px" height="75px">
<g id="surface29566632">
<path style=" stroke:none;fill-rule:nonzero;fill:rgb(14.901961%,19.607843%,21.960784%);fill-opacity:1;" d="M 43.855469 49.433594 L 43.585938 49.433594 C 41.511719 55.257812 37.757812 58.164062 32.304688 58.164062 C 28.214844 58.164062 24.925781 56.644531 22.421875 53.589844 C 19.910156 50.546875 18.660156 46.324219 18.660156 40.925781 C 18.660156 33.949219 20.394531 28.273438 23.867188 23.886719 C 27.324219 19.515625 31.503906 17.332031 36.382812 17.332031 C 40.800781 17.332031 43.574219 19.109375 44.699219 22.683594 L 44.878906 22.683594 L 45.320312 18.152344 L 55.316406 18.152344 C 53.984375 31.144531 53.308594 39.628906 53.308594 43.628906 C 53.308594 47.898438 54.4375 50.03125 56.6875 50.03125 C 59.066406 50.03125 61.015625 48.40625 62.558594 45.183594 C 64.09375 41.949219 64.871094 37.726562 64.871094 32.519531 C 64.871094 25.386719 62.660156 19.539062 58.246094 14.976562 C 53.828125 10.421875 47.675781 8.136719 39.765625 8.136719 C 31.292969 8.136719 24.25 11.179688 18.636719 17.261719 C 13.027344 23.347656 10.21875 30.761719 10.21875 39.515625 C 10.21875 47.992188 12.699219 54.660156 17.65625 59.539062 C 22.625 64.417969 29.464844 66.863281 38.210938 66.863281 C 44.878906 66.863281 50.976562 65.558594 56.519531 62.933594 L 56.519531 71.664062 C 51.449219 73.882812 44.9375 75 36.96875 75 C 26.027344 75 17.136719 71.777344 10.289062 65.332031 C 3.425781 58.875 0 50.210938 0 39.324219 C 0 28.226562 3.660156 18.90625 10.976562 11.347656 C 18.289062 3.785156 27.707031 0 39.234375 0 C 49.894531 0 58.527344 2.929688 65.117188 8.800781 C 71.710938 14.671875 75 22.410156 75 32.011719 C 75 39.910156 72.984375 46.242188 68.960938 51.023438 C 64.925781 55.789062 59.933594 58.175781 53.984375 58.175781 C 51.054688 58.175781 48.667969 57.367188 46.828125 55.753906 C 44.992188 54.132812 44 52.023438 43.855469 49.433594 Z M 37.9375 25.285156 C 35.28125 25.285156 33.105469 26.851562 31.4375 29.972656 C 29.757812 33.105469 28.925781 36.722656 28.925781 40.835938 C 28.925781 43.765625 29.5 46.042969 30.636719 47.675781 C 31.777344 49.308594 33.242188 50.121094 35.054688 50.121094 C 37.839844 50.121094 40.035156 48.585938 41.636719 45.5 C 43.222656 42.425781 44.023438 38.3125 44.023438 33.160156 C 44.023438 30.714844 43.472656 28.800781 42.355469 27.390625 C 41.253906 25.996094 39.777344 25.285156 37.9375 25.285156 Z M 37.9375 25.285156 "/>
</g>
</svg>
