<?xml version="1.0" encoding="UTF-8"?>
<svg xmlns="http://www.w3.org/2000/svg" xmlns:xlink="http://www.w3.org/1999/xlink" viewBox="0 0 50 50" width="50px" height="50px">
<g id="surface326771607">
<path style=" stroke:none;fill-rule:nonzero;fill:rgb(100%,54.901963%,57.254905%);fill-opacity:1;" d="M 40 0 L 40 10 L 50 10 L 50 0 Z M 33 5 L 33 11 L 29 11 L 29 13 L 33 13 L 33 19 L 39 19 L 39 17 L 35 17 L 35 7 L 39 7 L 39 5 Z M 18 7 L 18 17 L 28 17 L 28 7 Z M 13 11 L 13 24 L 11 24 L 11 26 L 13 26 L 13 39 L 17 39 L 17 37 L 15 37 L 15 13 L 17 13 L 17 11 Z M 40 14 L 40 24 L 50 24 L 50 14 Z M 0 18 L 0 32 L 10 32 L 10 18 Z M 40 26 L 40 36 L 50 36 L 50 26 Z M 33 31 L 33 37 L 29 37 L 29 39 L 33 39 L 33 45 L 39 45 L 39 43 L 35 43 L 35 33 L 39 33 L 39 31 Z M 18 33 L 18 43 L 28 43 L 28 33 Z M 40 40 L 40 50 L 50 50 L 50 40 Z M 40 40 "/>
</g>
</svg>
