<?xml version="1.0" encoding="UTF-8"?>
<svg xmlns="http://www.w3.org/2000/svg" xmlns:xlink="http://www.w3.org/1999/xlink" viewBox="0 0 75 75" width="75px" height="75px">
<g id="surface29493261">
<path style=" stroke:none;fill-rule:nonzero;fill:rgb(14.901961%,19.607843%,21.960784%);fill-opacity:1;" d="M 48.34375 15 C 59.152344 15 60 15.847656 60 26.65625 L 60 48.414062 C 60 59.160156 59.160156 60 48.414062 60 L 26.585938 60 C 15.839844 60 15 59.160156 15 48.414062 L 15 26.585938 C 15 15.839844 15.839844 15 26.585938 15 Z M 51.105469 35.148438 L 51.105469 30.347656 C 51.105469 30.347656 48.449219 30.363281 46.207031 28.398438 C 44.324219 26.746094 44.167969 23.65625 44.167969 23.65625 L 39.144531 23.65625 C 39.144531 23.65625 39.144531 40.042969 39.144531 42.652344 C 39.144531 45.265625 36.769531 46.617188 35.066406 46.617188 C 33.78125 46.617188 30.859375 45.652344 30.859375 42.625 C 30.859375 39.445312 34.21875 38.632812 35.097656 38.632812 C 35.976562 38.632812 36.320312 38.8125 36.320312 38.8125 L 36.320312 33.742188 C 36.320312 33.742188 35.503906 33.667969 34.90625 33.648438 C 29.839844 33.484375 25.648438 37.835938 25.648438 42.625 C 25.648438 46.667969 28.957031 51.570312 35.003906 51.570312 C 41.441406 51.570312 44.386719 46.433594 44.386719 42.652344 C 44.386719 39.890625 44.386719 33.230469 44.386719 33.230469 C 44.386719 33.230469 46.242188 34.21875 47.746094 34.667969 C 49.253906 35.121094 51.105469 35.148438 51.105469 35.148438 Z M 51.105469 35.148438 "/>
</g>
</svg>
