<?xml version="1.0" encoding="UTF-8"?>
<svg xmlns="http://www.w3.org/2000/svg" xmlns:xlink="http://www.w3.org/1999/xlink" viewBox="0 0 52 52" width="52px" height="52px">
<g id="surface29568135">
<path style=" stroke:none;fill-rule:nonzero;fill:rgb(14.901961%,19.607843%,21.960784%);fill-opacity:1;" d="M 30.40625 34.273438 L 30.21875 34.273438 C 28.78125 38.3125 26.179688 40.328125 22.398438 40.328125 C 19.5625 40.328125 17.28125 39.273438 15.546875 37.15625 C 13.804688 35.046875 12.9375 32.117188 12.9375 28.375 C 12.9375 23.539062 14.140625 19.601562 16.546875 16.5625 C 18.945312 13.53125 21.84375 12.015625 25.226562 12.015625 C 28.289062 12.015625 30.210938 13.25 30.992188 15.726562 L 31.117188 15.726562 L 31.421875 12.585938 L 38.351562 12.585938 C 37.429688 21.59375 36.960938 27.476562 36.960938 30.25 C 36.960938 33.210938 37.742188 34.6875 39.304688 34.6875 C 40.953125 34.6875 42.304688 33.5625 43.375 31.328125 C 44.4375 29.085938 44.976562 26.15625 44.976562 22.546875 C 44.976562 17.601562 43.445312 13.546875 40.382812 10.382812 C 37.320312 7.226562 33.054688 5.640625 27.570312 5.640625 C 21.695312 5.640625 16.8125 7.75 12.921875 11.96875 C 9.03125 16.1875 7.085938 21.328125 7.085938 27.398438 C 7.085938 33.273438 8.804688 37.898438 12.242188 41.28125 C 15.6875 44.664062 20.429688 46.359375 26.492188 46.359375 C 31.117188 46.359375 35.34375 45.453125 39.1875 43.632812 L 39.1875 49.6875 C 35.671875 51.226562 31.15625 52 25.632812 52 C 18.046875 52 11.882812 49.765625 7.132812 45.296875 C 2.375 40.820312 0 34.8125 0 27.265625 C 0 19.570312 2.539062 13.109375 7.609375 7.867188 C 12.679688 2.625 19.210938 0 27.203125 0 C 34.59375 0 40.578125 2.03125 45.148438 6.101562 C 49.71875 10.171875 52 15.539062 52 22.195312 C 52 27.671875 50.601562 32.0625 47.8125 35.375 C 45.015625 38.679688 41.554688 40.335938 37.429688 40.335938 C 35.398438 40.335938 33.742188 39.773438 32.46875 38.65625 C 31.195312 37.53125 30.507812 36.070312 30.40625 34.273438 Z M 26.304688 17.53125 C 24.460938 17.53125 22.953125 18.617188 21.796875 20.78125 C 20.632812 22.953125 20.054688 25.460938 20.054688 28.3125 C 20.054688 30.34375 20.453125 31.921875 21.242188 33.054688 C 22.03125 34.1875 23.046875 34.75 24.304688 34.75 C 26.234375 34.75 27.757812 33.6875 28.867188 31.546875 C 29.96875 29.414062 30.523438 26.5625 30.523438 22.992188 C 30.523438 21.296875 30.140625 19.96875 29.367188 18.992188 C 28.601562 18.023438 27.578125 17.53125 26.304688 17.53125 Z M 26.304688 17.53125 "/>
</g>
</svg>
