<?xml version="1.0" encoding="UTF-8"?>
<svg xmlns="http://www.w3.org/2000/svg" xmlns:xlink="http://www.w3.org/1999/xlink" viewBox="0 0 64 64" width="64px" height="64px">
<g id="surface326852184">
<path style=" stroke:none;fill-rule:nonzero;fill:rgb(60.784316%,34.901962%,71.372551%);fill-opacity:1;" d="M 61.949219 18.75 L 57.601562 11.25 C 57.351562 10.800781 56.851562 10.5 56.300781 10.5 L 47.648438 10.5 C 47.101562 10.5 46.601562 10.800781 46.351562 11.25 L 42 18.75 C 41.75 19.199219 41.75 19.800781 42 20.25 L 46.351562 27.75 C 46.601562 28.199219 47.101562 28.5 47.648438 28.5 L 56.300781 28.5 C 56.851562 28.5 57.351562 28.199219 57.601562 27.75 L 61.949219 20.25 C 62.25 19.800781 62.25 19.199219 61.949219 18.75 Z M 52 24 C 49.5 24 47.5 22 47.5 19.5 C 47.5 17 49.5 15 52 15 C 54.5 15 56.5 17 56.5 19.5 C 56.5 22 54.5 24 52 24 Z M 6.800781 32 C 6.550781 32 6.351562 31.949219 6.101562 31.851562 C 5.351562 31.449219 5.050781 30.550781 5.449219 29.851562 L 12.25 16.550781 C 13.351562 14.351562 15.601562 13 18.050781 13 L 35.449219 13 C 36.300781 13 36.949219 13.648438 36.949219 14.5 C 36.949219 15.351562 36.300781 16 35.449219 16 L 18.050781 16 C 16.75 16 15.550781 16.75 14.949219 17.898438 L 8.148438 31.199219 C 7.898438 31.699219 7.351562 32 6.800781 32 Z M 55.5 58.5 L 8.5 58.5 C 4.898438 58.5 2 55.601562 2 52 L 2 37 C 2 36.148438 2.648438 35.5 3.5 35.5 L 17.5 35.5 C 18 35.5 18.449219 35.75 18.75 36.148438 C 21.601562 40.449219 26.351562 43 31.5 43 C 36.648438 43 41.398438 40.449219 44.25 36.199219 C 44.5 35.75 45 35.5 45.5 35.5 L 60.5 35.5 C 61.351562 35.5 62 36.148438 62 37 L 62 52 C 62 55.601562 59.101562 58.5 55.5 58.5 Z M 55.5 58.5 "/>
</g>
</svg>
