<?xml version="1.0" encoding="UTF-8"?>
<svg xmlns="http://www.w3.org/2000/svg" xmlns:xlink="http://www.w3.org/1999/xlink" viewBox="0 0 100 100" width="100px" height="100px">
<g id="surface21357380">
<path style=" stroke:none;fill-rule:nonzero;fill:rgb(100%,54.901963%,57.254905%);fill-opacity:1;" d="M 80 0 L 80 20 L 100 20 L 100 0 Z M 66 10 L 66 22 L 58 22 L 58 26 L 66 26 L 66 38 L 78 38 L 78 34 L 70 34 L 70 14 L 78 14 L 78 10 Z M 36 14 L 36 34 L 56 34 L 56 14 Z M 26 22 L 26 48 L 22 48 L 22 52 L 26 52 L 26 78 L 34 78 L 34 74 L 30 74 L 30 26 L 34 26 L 34 22 Z M 80 28 L 80 48 L 100 48 L 100 28 Z M 0 36 L 0 64 L 20 64 L 20 36 Z M 80 52 L 80 72 L 100 72 L 100 52 Z M 66 62 L 66 74 L 58 74 L 58 78 L 66 78 L 66 90 L 78 90 L 78 86 L 70 86 L 70 66 L 78 66 L 78 62 Z M 36 66 L 36 86 L 56 86 L 56 66 Z M 80 80 L 80 100 L 100 100 L 100 80 Z M 80 80 "/>
</g>
</svg>
