<svg width="40" height="30" viewBox="0 0 40 30" fill="none" xmlns="http://www.w3.org/2000/svg">
<path d="M38.5714 21.4281H37.1429V4.28523C37.1382 3.15003 36.6851 2.06267 35.8824 1.25996C35.0797 0.457251 33.9923 0.00421238 32.8571 -0.000488281H7.14286C6.00766 0.00421238 4.9203 0.457251 4.11759 1.25996C3.31488 2.06267 2.86184 3.15003 2.85714 4.28523V21.4281H1.42857C1.04969 21.4281 0.686328 21.5786 0.418419 21.8465C0.15051 22.1144 0 22.4778 0 22.8567V25.7138C0.00470066 26.849 0.457739 27.9364 1.26045 28.7391C2.06316 29.5418 3.15052 29.9948 4.28571 29.9995H35.7143C36.8495 29.9948 37.9368 29.5418 38.7396 28.7391C39.5423 27.9364 39.9953 26.849 40 25.7138V22.8567C40 22.4778 39.8495 22.1144 39.5816 21.8465C39.3137 21.5786 38.9503 21.4281 38.5714 21.4281ZM17.1429 4.28523H22.8571C23.236 4.28523 23.5994 4.43574 23.8673 4.70365C24.1352 4.97155 24.2857 5.33492 24.2857 5.7138C24.2857 6.09268 24.1352 6.45604 23.8673 6.72395C23.5994 6.99186 23.236 7.14237 22.8571 7.14237H17.1429C16.764 7.14237 16.4006 6.99186 16.1327 6.72395C15.8648 6.45604 15.7143 6.09268 15.7143 5.7138C15.7143 5.33492 15.8648 4.97155 16.1327 4.70365C16.4006 4.43574 16.764 4.28523 17.1429 4.28523ZM37.1429 25.7138C37.1429 26.0927 36.9923 26.456 36.7244 26.724C36.4565 26.9919 36.0932 27.1424 35.7143 27.1424H4.28571C3.90683 27.1424 3.54347 26.9919 3.27556 26.724C3.00765 26.456 2.85714 26.0927 2.85714 25.7138V24.2852H37.1429V25.7138Z" fill="#6DB0C4"/>
</svg>
